<svg id="visual" viewBox="0 0 1980 1080" width="1980" height="1080" xmlns="http://www.w3.org/2000/svg" xmlns:xlink="http://www.w3.org/1999/xlink" version="1.1"><path d="M0 701L47.2 685.3C94.3 669.7 188.7 638.3 283 635.7C377.3 633 471.7 659 566 683.5C660.3 708 754.7 731 848.8 717.7C943 704.3 1037 654.7 1131.2 636.2C1225.3 617.7 1319.7 630.3 1414 642.2C1508.3 654 1602.7 665 1697 659.2C1791.3 653.3 1885.7 630.7 1932.8 619.3L1980 608L1980 1081L1932.8 1081C1885.7 1081 1791.3 1081 1697 1081C1602.7 1081 1508.3 1081 1414 1081C1319.7 1081 1225.3 1081 1131.2 1081C1037 1081 943 1081 848.8 1081C754.7 1081 660.3 1081 566 1081C471.7 1081 377.3 1081 283 1081C188.7 1081 94.3 1081 47.2 1081L0 1081Z" fill="#a9a38f"></path><path d="M0 797L47.2 776.3C94.3 755.7 188.7 714.3 283 715.3C377.3 716.3 471.7 759.7 566 761.5C660.3 763.3 754.7 723.7 848.8 713.7C943 703.7 1037 723.3 1131.2 733.3C1225.3 743.3 1319.7 743.7 1414 734.7C1508.3 725.7 1602.7 707.3 1697 695C1791.3 682.7 1885.7 676.3 1932.8 673.2L1980 670L1980 1081L1932.8 1081C1885.7 1081 1791.3 1081 1697 1081C1602.7 1081 1508.3 1081 1414 1081C1319.7 1081 1225.3 1081 1131.2 1081C1037 1081 943 1081 848.8 1081C754.7 1081 660.3 1081 566 1081C471.7 1081 377.3 1081 283 1081C188.7 1081 94.3 1081 47.2 1081L0 1081Z" fill="#949a87"></path><path d="M0 768L47.2 782.2C94.3 796.3 188.7 824.7 283 832.5C377.3 840.3 471.7 827.7 566 830C660.3 832.3 754.7 849.7 848.8 838C943 826.3 1037 785.7 1131.2 782C1225.3 778.3 1319.7 811.7 1414 819.7C1508.3 827.7 1602.7 810.3 1697 803.5C1791.3 796.7 1885.7 800.3 1932.8 802.2L1980 804L1980 1081L1932.8 1081C1885.7 1081 1791.3 1081 1697 1081C1602.7 1081 1508.3 1081 1414 1081C1319.7 1081 1225.3 1081 1131.2 1081C1037 1081 943 1081 848.8 1081C754.7 1081 660.3 1081 566 1081C471.7 1081 377.3 1081 283 1081C188.7 1081 94.3 1081 47.2 1081L0 1081Z" fill="#809183"></path><path d="M0 862L47.2 860.5C94.3 859 188.7 856 283 858C377.3 860 471.7 867 566 861.8C660.3 856.7 754.7 839.3 848.8 834.5C943 829.7 1037 837.3 1131.2 852.3C1225.3 867.3 1319.7 889.7 1414 884.7C1508.3 879.7 1602.7 847.3 1697 836C1791.3 824.7 1885.7 834.3 1932.8 839.2L1980 844L1980 1081L1932.8 1081C1885.7 1081 1791.3 1081 1697 1081C1602.7 1081 1508.3 1081 1414 1081C1319.7 1081 1225.3 1081 1131.2 1081C1037 1081 943 1081 848.8 1081C754.7 1081 660.3 1081 566 1081C471.7 1081 377.3 1081 283 1081C188.7 1081 94.3 1081 47.2 1081L0 1081Z" fill="#6f8780"></path><path d="M0 883L47.2 894.3C94.3 905.7 188.7 928.3 283 934.8C377.3 941.3 471.7 931.7 566 925.8C660.3 920 754.7 918 848.8 914.5C943 911 1037 906 1131.2 914.8C1225.3 923.7 1319.7 946.3 1414 958C1508.3 969.7 1602.7 970.3 1697 969.2C1791.3 968 1885.7 965 1932.8 963.5L1980 962L1980 1081L1932.8 1081C1885.7 1081 1791.3 1081 1697 1081C1602.7 1081 1508.3 1081 1414 1081C1319.7 1081 1225.3 1081 1131.2 1081C1037 1081 943 1081 848.8 1081C754.7 1081 660.3 1081 566 1081C471.7 1081 377.3 1081 283 1081C188.7 1081 94.3 1081 47.2 1081L0 1081Z" fill="#627c7c"></path><path d="M0 971L47.2 971.2C94.3 971.3 188.7 971.7 283 974.3C377.3 977 471.7 982 566 988C660.3 994 754.7 1001 848.8 999.2C943 997.3 1037 986.7 1131.2 981C1225.3 975.3 1319.7 974.7 1414 972.8C1508.3 971 1602.7 968 1697 968.7C1791.3 969.3 1885.7 973.7 1932.8 975.8L1980 978L1980 1081L1932.8 1081C1885.7 1081 1791.3 1081 1697 1081C1602.7 1081 1508.3 1081 1414 1081C1319.7 1081 1225.3 1081 1131.2 1081C1037 1081 943 1081 848.8 1081C754.7 1081 660.3 1081 566 1081C471.7 1081 377.3 1081 283 1081C188.7 1081 94.3 1081 47.2 1081L0 1081Z" fill="#597178"></path></svg>